<svg xmlns="http://www.w3.org/2000/svg" xmlns:xlink="http://www.w3.org/1999/xlink" width="960" height="800"><g transform="translate(0 0)"><path d="M0 0h960v800H0z" fill="#fff"/><path d="M398.8 85c0-2.76 2.24-5 5-5h152.4c2.76 0 5 2.24 5 5v65.86c0 2.76-2.24 5-5 5H403.8c-2.76 0-5-2.24-5-5z" fill="#d0c4da"/><use xlink:href="#a" transform="matrix(1,0,0,1,403.80597014925377,80) translate(59.04931640625 42.59228515625)"/><path d="M66.1 231.43c0-2.76 2.23-5 5-5h166.5c2.76 0 5 2.24 5 5v65.86c0 2.75-2.24 5-5 5H71.1c-2.77 0-5-2.25-5-5z" fill="#d3cdd8"/><use xlink:href="#b" transform="matrix(1,0,0,1,71.08695652173917,226.42857142857144) translate(51.52099609375 33.6669921875)"/><use xlink:href="#c" transform="matrix(1,0,0,1,71.08695652173917,226.42857142857144) translate(98.05908203125 33.6669921875)"/><use xlink:href="#d" transform="matrix(1,0,0,1,71.08695652173917,226.42857142857144) translate(33.99560546875 51.517578125)"/><path d="M480 155.86v35.28H154.34v35.3" stroke="#3d4752" stroke-width="2" fill="none"/><path d="M101.4 337.86c0-2.76 2.23-5 5-5h131.2c2.76 0 5 2.24 5 5v65.85c0 2.78-2.24 5-5 5H106.4c-2.77 0-5-2.22-5-5z" fill="#d6d6d6"/><use xlink:href="#e" transform="matrix(1,0,0,1,106.38870863075923,332.85714285714283) translate(46.3037109375 33.6669921875)"/><use xlink:href="#f" transform="matrix(1,0,0,1,106.38870863075923,332.85714285714283) translate(20.4111328125 51.517578125)"/><path d="M83.74 302.3v68.5h17.65" stroke="#3d4752" stroke-width="2" fill="none"/><path d="M101.4 444.3c0-2.78 2.23-5 5-5h131.2c2.76 0 5 2.22 5 5v65.84c0 2.76-2.24 5-5 5H106.4c-2.77 0-5-2.24-5-5z" fill="#d6d6d6"/><use xlink:href="#g" transform="matrix(1,0,0,1,106.38870863075923,439.28571428571433) translate(4.86767578125 42.59228515625)"/><use xlink:href="#h" transform="matrix(1,0,0,1,106.38870863075923,439.28571428571433) translate(82.21142578125 42.59228515625)"/><path d="M83.74 302.3v174.9h17.65" stroke="#3d4752" stroke-width="2" fill="none"/><path d="M101.4 550.7c0-2.75 2.23-5 5-5h131.2c2.76 0 5 2.25 5 5v65.87c0 2.76-2.24 5-5 5H106.4c-2.77 0-5-2.24-5-5z" fill="#d6d6d6"/><use xlink:href="#i" transform="matrix(1,0,0,1,106.38870863075923,545.7142857142857) translate(4.6083984375 42.59228515625)"/><path d="M83.74 302.3v281.34h17.65" stroke="#3d4752" stroke-width="2" fill="none"/><path d="M283.2 231.43c0-2.76 2.23-5 5-5h166.5c2.76 0 5 2.24 5 5v65.86c0 2.75-2.24 5-5 5H288.2c-2.77 0-5-2.25-5-5z" fill="#d3cdd8"/><use xlink:href="#b" transform="matrix(1,0,0,1,288.1927319922129,226.42857142857144) translate(51.52099609375 33.6669921875)"/><use xlink:href="#c" transform="matrix(1,0,0,1,288.1927319922129,226.42857142857144) translate(98.05908203125 33.6669921875)"/><use xlink:href="#j" transform="matrix(1,0,0,1,288.1927319922129,226.42857142857144) translate(30.73486328125 51.517578125)"/><use xlink:href="#k" transform="matrix(1,0,0,1,288.1927319922129,226.42857142857144) translate(90.84326171875 51.517578125)"/><path d="M480 155.86v35.28H371.45v35.3" stroke="#3d4752" stroke-width="2" fill="none"/><path d="M318.5 337.86c0-2.76 2.23-5 5-5h131.2c2.76 0 5 2.24 5 5v65.85c0 2.78-2.24 5-5 5H323.5c-2.77 0-5-2.22-5-5z" fill="#d6d6d6"/><use xlink:href="#l" transform="matrix(1,0,0,1,323.49448410123296,332.85714285714283) translate(28.365234375 33.6669921875)"/><use xlink:href="#m" transform="matrix(1,0,0,1,323.49448410123296,332.85714285714283) translate(12.37353515625 51.517578125)"/><path d="M300.84 302.3v68.5h17.65" stroke="#3d4752" stroke-width="2" fill="none"/><path d="M318.5 444.3c0-2.78 2.23-5 5-5h131.2c2.76 0 5 2.22 5 5v65.84c0 2.76-2.24 5-5 5H323.5c-2.77 0-5-2.24-5-5z" fill="#d6d6d6"/><use xlink:href="#n" transform="matrix(1,0,0,1,323.49448410123296,439.28571428571433) translate(11.65283203125 42.59228515625)"/><path d="M300.84 302.3v174.9h17.65" stroke="#3d4752" stroke-width="2" fill="none"/><path d="M318.5 550.7c0-2.75 2.23-5 5-5h131.2c2.76 0 5 2.25 5 5v65.87c0 2.76-2.24 5-5 5H323.5c-2.77 0-5-2.24-5-5z" fill="#d6d6d6"/><use xlink:href="#o" transform="matrix(1,0,0,1,323.49448410123296,545.7142857142857) translate(12.9228515625 33.6669921875)"/><use xlink:href="#p" transform="matrix(1,0,0,1,323.49448410123296,545.7142857142857) translate(89.2822265625 33.6669921875)"/><use xlink:href="#q" transform="matrix(1,0,0,1,323.49448410123296,545.7142857142857) translate(28.9189453125 51.517578125)"/><path d="M300.84 302.3v281.34h17.65" stroke="#3d4752" stroke-width="2" fill="none"/><path d="M318.5 657.14c0-2.76 2.23-5 5-5h131.2c2.76 0 5 2.24 5 5V723c0 2.76-2.24 5-5 5H323.5c-2.77 0-5-2.24-5-5z" fill="#d6d6d6"/><use xlink:href="#r" transform="matrix(1,0,0,1,323.49448410123296,652.142857142857) translate(19.400390625 42.59228515625)"/><path d="M300.84 302.3v387.77h17.65" stroke="#3d4752" stroke-width="2" fill="none"/><path d="M500.3 231.43c0-2.76 2.24-5 5-5h166.5c2.77 0 5 2.24 5 5v65.86c0 2.75-2.23 5-5 5H505.3c-2.76 0-5-2.25-5-5z" fill="#d3cdd8"/><use xlink:href="#b" transform="matrix(1,0,0,1,505.29850746268653,226.42857142857144) translate(51.52099609375 33.6669921875)"/><use xlink:href="#c" transform="matrix(1,0,0,1,505.29850746268653,226.42857142857144) translate(98.05908203125 33.6669921875)"/><use xlink:href="#s" transform="matrix(1,0,0,1,505.29850746268653,226.42857142857144) translate(42.015625 51.517578125)"/><path d="M480 155.86v35.28h108.55v35.3" stroke="#3d4752" stroke-width="2" fill="none"/><path d="M535.6 337.86c0-2.76 2.24-5 5-5h131.2c2.77 0 5 2.24 5 5v65.85c0 2.78-2.23 5-5 5H540.6c-2.76 0-5-2.22-5-5z" fill="#d6d6d6"/><use xlink:href="#t" transform="matrix(1,0,0,1,540.6002595717067,332.85714285714283) translate(39.59765625 33.6669921875)"/><use xlink:href="#u" transform="matrix(1,0,0,1,540.6002595717067,332.85714285714283) translate(24.515625 51.517578125)"/><path d="M517.95 302.3v68.5h17.65" stroke="#3d4752" stroke-width="2" fill="none"/><path d="M535.6 444.3c0-2.78 2.24-5 5-5h131.2c2.77 0 5 2.22 5 5v65.84c0 2.76-2.23 5-5 5H540.6c-2.76 0-5-2.24-5-5z" fill="#d6d6d6"/><use xlink:href="#v" transform="matrix(1,0,0,1,540.6002595717067,439.28571428571433) translate(41.61474609375 33.6669921875)"/><use xlink:href="#u" transform="matrix(1,0,0,1,540.6002595717067,439.28571428571433) translate(24.515625 51.517578125)"/><path d="M517.95 302.3v174.9h17.65" stroke="#3d4752" stroke-width="2" fill="none"/><path d="M535.6 550.7c0-2.75 2.24-5 5-5h131.2c2.77 0 5 2.25 5 5v65.87c0 2.76-2.23 5-5 5H540.6c-2.76 0-5-2.24-5-5z" fill="#d6d6d6"/><use xlink:href="#w" transform="matrix(1,0,0,1,540.6002595717067,545.7142857142857) translate(32.67626953125 33.6669921875)"/><use xlink:href="#u" transform="matrix(1,0,0,1,540.6002595717067,545.7142857142857) translate(24.515625 51.517578125)"/><path d="M517.95 302.3v281.34h17.65" stroke="#3d4752" stroke-width="2" fill="none"/><path d="M717.4 231.43c0-2.76 2.24-5 5-5h166.5c2.77 0 5 2.24 5 5v65.86c0 2.75-2.23 5-5 5H722.4c-2.76 0-5-2.25-5-5z" fill="#d3cdd8"/><g><use xlink:href="#b" transform="matrix(1,0,0,1,722.4042829331604,226.42857142857144) translate(17.669921875 33.6669921875)"/><use xlink:href="#x" transform="matrix(1,0,0,1,722.4042829331604,226.42857142857144) translate(64.2080078125 33.6669921875)"/><use xlink:href="#y" transform="matrix(1,0,0,1,722.4042829331604,226.42857142857144) translate(86.1279296875 33.6669921875)"/><use xlink:href="#z" transform="matrix(1,0,0,1,722.4042829331604,226.42857142857144) translate(4.9609375 51.517578125)"/><use xlink:href="#A" transform="matrix(1,0,0,1,722.4042829331604,226.42857142857144) translate(39.255859375 51.517578125)"/></g><path d="M480 155.86v35.28h325.66v35.3" stroke="#3d4752" stroke-width="2" fill="none"/><path d="M752.7 337.86c0-2.76 2.24-5 5-5h131.2c2.77 0 5 2.24 5 5v65.85c0 2.78-2.23 5-5 5H757.7c-2.76 0-5-2.22-5-5z" fill="#d6d6d6"/><g><use xlink:href="#B" transform="matrix(1,0,0,1,757.7060350421805,332.85714285714283) translate(54.12158203125 42.59228515625)"/></g><path d="M735.06 302.3v68.5h17.65" stroke="#3d4752" stroke-width="2" fill="none"/><path d="M752.7 444.3c0-2.78 2.24-5 5-5h131.2c2.77 0 5 2.22 5 5v65.84c0 2.76-2.23 5-5 5H757.7c-2.76 0-5-2.24-5-5z" fill="#d6d6d6"/><g><use xlink:href="#C" transform="matrix(1,0,0,1,757.7060350421805,439.28571428571433) translate(34.39892578125 42.59228515625)"/></g><path d="M735.06 302.3v174.9h17.65" stroke="#3d4752" stroke-width="2" fill="none"/><path d="M752.7 550.7c0-2.75 2.24-5 5-5h131.2c2.77 0 5 2.25 5 5v65.87c0 2.76-2.23 5-5 5H757.7c-2.76 0-5-2.24-5-5z" fill="#d6d6d6"/><g><use xlink:href="#D" transform="matrix(1,0,0,1,757.7060350421805,545.7142857142857) translate(29.74951171875 42.59228515625)"/></g><path d="M735.06 302.3v281.34h17.65" stroke="#3d4752" stroke-width="2" fill="none"/><defs><path fill="#3d4752" d="M276-725c0 336 217 590 547 590 105 0 228-34 369-103l20 146C1043-20 904 16 797 16c-395 0-695-339-695-743 0-401 297-725 699-725 101 0 226 26 375 78l-25 153c-163-68-267-107-416-79-266 51-459 271-459 575" id="E"/><path fill="#3d4752" d="M1067-143L1053 0H164v-1434h848l14 144H336v471h616v143H336v533h731" id="F"/><path fill="#3d4752" d="M768-1448c376 0 657 346 657 739 0 186-59 350-178 492C1117-63 955 14 762 14c-363 0-660-362-660-729 0-378 293-733 666-733zM272-715c0 278 223 586 494 586 277 0 485-300 485-594 0-296-205-582-489-582-286 0-490 297-490 590" id="G"/><g id="a"><use transform="matrix(0.0087890625,0,0,0.0087890625,0,0)" xlink:href="#E"/><use transform="matrix(0.0087890625,0,0,0.0087890625,11.197265625,0)" xlink:href="#F"/><use transform="matrix(0.0087890625,0,0,0.0087890625,21.4716796875,0)" xlink:href="#G"/></g><path fill="#3d4752" d="M1239 0l-172 14v-690H336V0H164v-1434l172-14v629h731v-615h172V0" id="H"/><path fill="#3d4752" d="M578-1032c281 0 511 282 450 590l-741 24c17 157 173 297 346 297 74 0 218-37 250-74l63 125c-31 42-240 88-321 88-271 0-523-260-523-530 0-271 210-520 476-520zm276 452c-8-161-122-309-283-309-152 0-290 179-295 330" id="I"/><path fill="#3d4752" d="M719-682c0-175-67-206-256-207-74 0-162 22-264 66l-64-125c131-56 242-84 332-84 281 0 423 116 422 348L885 0H713v-45C618-4 534 16 461 16 274 16 82-123 82-303c0-208 189-334 407-334 81 0 155 10 224 31 4-22 6-47 6-76zm-6 510v-291c-66-16-134-24-205-24-173 0-260 61-260 182 0 117 73 176 219 176 81 0 163-14 246-43" id="J"/><path fill="#3d4752" d="M102-496c0-322 165-536 471-536 71 0 165 27 281 80v-535l172 14V0H854v-57C739-8 646 16 575 16c-315 0-473-192-473-512zm752 312v-623c-108-45-204-67-287-67-56 0-100 11-133 34-106 77-160 186-160 338 0 176 50 256 154 340 27 22 71 33 131 33 82 0 180-18 295-55" id="K"/><g id="b"><use transform="matrix(0.0087890625,0,0,0.0087890625,0,0)" xlink:href="#H"/><use transform="matrix(0.0087890625,0,0,0.0087890625,12.3310546875,0)" xlink:href="#I"/><use transform="matrix(0.0087890625,0,0,0.0087890625,22.32421875,0)" xlink:href="#J"/><use transform="matrix(0.0087890625,0,0,0.0087890625,31.5791015625,0)" xlink:href="#K"/></g><path fill="#3d4752" d="M586-1032c271 0 485 255 485 522 0 270-229 524-496 524C310 14 82-250 82-512c0-279 224-520 504-520zm-6 901c188 0 319-193 319-385 0-184-140-373-319-373-188 0-326 188-326 381 0 191 140 377 326 377" id="L"/><path fill="#3d4752" d="M580-1307c-135 0-164 79-168 230 0 25 1 48 4 69l358-2v129l-358-2V0H244v-883l-183 2v-129l183 2c-13-119 8-258 53-311 59-69 161-131 301-131 75 0 166 20 272 61l-77 132c-81-33-152-50-213-50" id="M"/><g id="c"><use transform="matrix(0.0087890625,0,0,0.0087890625,0,0)" xlink:href="#L"/><use transform="matrix(0.0087890625,0,0,0.0087890625,10.1337890625,0)" xlink:href="#M"/></g><path fill="#3d4752" d="M336-918c79-47 222-114 309-114 154 0 372 125 387 254 15 132 16 550 10 778H866l2-637c0-162-81-252-243-252-69 0-165 34-289 103V0H164v-1004l172-14v100" id="N"/><path fill="#3d4752" d="M102-487c-5-326 181-545 492-545 72 0 165 29 280 86v-72l173 14V0c-3 147-44 294-109 358-112 110-250 134-442 101-56-10-145-32-267-70l66-129c83 31 187 66 278 64 148-3 233-33 275-131 0-13 39-139 26-187v-55C753-4 676 19 586 14 292-3 107-183 102-487zm772 303v-623c-129-45-237-67-323-67-55 0-95 10-121 30-107 83-159 203-156 367 3 134 57 238 160 311 35 25 86 37 152 37 85 0 181-18 288-55" id="O"/><path fill="#3d4752" d="M356 0H184v-1004l172-14V0zm19-1434c0 55-50 105-105 105s-106-51-106-105 51-104 106-104 105 48 105 104" id="P"/><path fill="#3d4752" d="M336-911c52-59 138-121 229-121 112 0 197 23 256 69l-61 129c-47-34-126-57-228-57-65 0-131 37-196 111V0H164v-1004l172-14v107" id="Q"/><g id="d"><use transform="matrix(0.0087890625,0,0,0.0087890625,0,0)" xlink:href="#F"/><use transform="matrix(0.0087890625,0,0,0.0087890625,10.2744140625,0)" xlink:href="#N"/><use transform="matrix(0.0087890625,0,0,0.0087890625,20.35546875,0)" xlink:href="#O"/><use transform="matrix(0.0087890625,0,0,0.0087890625,30.990234375,0)" xlink:href="#P"/><use transform="matrix(0.0087890625,0,0,0.0087890625,35.7275390625,0)" xlink:href="#N"/><use transform="matrix(0.0087890625,0,0,0.0087890625,45.80859375,0)" xlink:href="#I"/><use transform="matrix(0.0087890625,0,0,0.0087890625,55.8017578125,0)" xlink:href="#I"/><use transform="matrix(0.0087890625,0,0,0.0087890625,65.794921875,0)" xlink:href="#Q"/><use transform="matrix(0.0087890625,0,0,0.0087890625,73.5556640625,0)" xlink:href="#P"/><use transform="matrix(0.0087890625,0,0,0.0087890625,78.29296875,0)" xlink:href="#N"/><use transform="matrix(0.0087890625,0,0,0.0087890625,88.3740234375,0)" xlink:href="#O"/></g><path fill="#3d4752" d="M711-127c266 7 401-161 401-448v-859h172v861c0 353-209 602-567 587C332-2 164-192 164-586v-848l172-14v858c5 56 6 112 14 168 28 192 143 289 361 295" id="R"/><path fill="#3d4752" d="M911-328C912-83 674 4 414 14c-74 3-277-50-312-82l68-127c107 45 178 68 256 64 83-4 155-23 213-51 71-35 107-76 104-131-6-120-49-140-186-142-33-1-88 6-127 6-190 3-319-112-317-296 3-293 511-369 739-205l-61 125c-49-37-195-84-283-64-70 16-120 28-148 43-51 27-75 63-73 123 2 139 137 129 295 129 219 0 329 89 329 266" id="S"/><g id="e"><use transform="matrix(0.0087890625,0,0,0.0087890625,0,0)" xlink:href="#R"/><use transform="matrix(0.0087890625,0,0,0.0087890625,12.7265625,0)" xlink:href="#S"/><use transform="matrix(0.0087890625,0,0,0.0087890625,21.638671875,0)" xlink:href="#I"/><use transform="matrix(0.0087890625,0,0,0.0087890625,31.6318359375,0)" xlink:href="#Q"/></g><path fill="#3d4752" d="M934-14L756 14 498-389 240 14 61-14l338-500L78-989l176-29 244 381 241-381 176 29-319 475" id="T"/><path fill="#3d4752" d="M1087-551c0 336-171 565-485 565-68 0-157-21-266-63v504l-172 14v-1473l172-14v72c128-61 207-94 303-86 299 24 448 189 448 481zM756-168c93-63 160-213 159-367-2-178-48-222-155-311-26-21-66-31-119-31-82 0-184 22-305 66v625c101 37 191 55 272 55 63 0 112-12 148-37" id="U"/><path fill="#3d4752" d="M274-506c0 175 132 377 304 377 99 0 198-23 296-68l64 127C804-13 693 16 606 16c-267 0-504-263-504-526 0-287 221-522 510-522 70 0 179 28 326 84l-68 135c-79-51-176-76-292-76-175 0-304 203-304 383" id="V"/><g id="f"><use transform="matrix(0.0087890625,0,0,0.0087890625,0,0)" xlink:href="#F"/><use transform="matrix(0.0087890625,0,0,0.0087890625,10.2744140625,0)" xlink:href="#T"/><use transform="matrix(0.0087890625,0,0,0.0087890625,19.01953125,0)" xlink:href="#U"/><use transform="matrix(0.0087890625,0,0,0.0087890625,29.478515625,0)" xlink:href="#I"/><use transform="matrix(0.0087890625,0,0,0.0087890625,39.4716796875,0)" xlink:href="#Q"/><use transform="matrix(0.0087890625,0,0,0.0087890625,47.232421875,0)" xlink:href="#P"/><use transform="matrix(0.0087890625,0,0,0.0087890625,51.9697265625,0)" xlink:href="#I"/><use transform="matrix(0.0087890625,0,0,0.0087890625,61.962890625,0)" xlink:href="#N"/><use transform="matrix(0.0087890625,0,0,0.0087890625,72.0439453125,0)" xlink:href="#V"/><use transform="matrix(0.0087890625,0,0,0.0087890625,81.1845703125,0)" xlink:href="#I"/></g><path fill="#3d4752" d="M840-776c172 53 334 196 334 397 0 146-78 250-228 322C751 36 433 29 164 0v-1434c225-34 529-32 704 37 151 59 228 150 228 279 0 145-132 319-256 342zm-400-58c209 0 486-90 486-274 0-135-153-203-459-203-52 0-96 1-131 4v461c22 8 57 12 104 12zm559 408c0-98-66-168-196-215-114-42-321-60-467-35v537c77 12 148 18 215 18 299 0 448-102 448-305" id="W"/><path fill="#3d4752" d="M299-379c-1 183 73 266 248 266 68 0 156-29 264-86v-811h172v996L811 14v-71c-80 31-208 71-289 71-155 0-371-124-387-252-13-103-15-551-12-766l178-14" id="X"/><g id="g"><use transform="matrix(0.0087890625,0,0,0.0087890625,0,0)" xlink:href="#W"/><use transform="matrix(0.0087890625,0,0,0.0087890625,11.21484375,0)" xlink:href="#X"/><use transform="matrix(0.0087890625,0,0,0.0087890625,21.2958984375,0)" xlink:href="#S"/><use transform="matrix(0.0087890625,0,0,0.0087890625,30.2080078125,0)" xlink:href="#P"/><use transform="matrix(0.0087890625,0,0,0.0087890625,34.9453125,0)" xlink:href="#N"/><use transform="matrix(0.0087890625,0,0,0.0087890625,45.0263671875,0)" xlink:href="#I"/><use transform="matrix(0.0087890625,0,0,0.0087890625,55.01953125,0)" xlink:href="#S"/><use transform="matrix(0.0087890625,0,0,0.0087890625,63.931640625,0)" xlink:href="#S"/></g><path fill="#3d4752" d="M1067-143L1053 0H164v-1434l172-14v1305h731" id="Y"/><g id="h"><use transform="matrix(0.0087890625,0,0,0.0087890625,0,0)" xlink:href="#Y"/><use transform="matrix(0.0087890625,0,0,0.0087890625,10.2744140625,0)" xlink:href="#L"/><use transform="matrix(0.0087890625,0,0,0.0087890625,20.408203125,0)" xlink:href="#O"/><use transform="matrix(0.0087890625,0,0,0.0087890625,31.04296875,0)" xlink:href="#P"/><use transform="matrix(0.0087890625,0,0,0.0087890625,35.7802734375,0)" xlink:href="#V"/></g><path fill="#3d4752" d="M1159 14l-158-426H395L238 14 59-14l533-1420h213L1337-14zM698-1229L451-561h495" id="Z"/><path fill="#3d4752" d="M612-1032c133 0 260 70 324 145 224-163 401-197 629-65 84 49 127 110 137 174 16 102 15 562 12 778h-176v-637c0-178-74-254-244-254-69 0-163 42-280 127 17 70 18 551 14 764H852v-641c0-162-84-250-252-250-67 0-155 35-264 105V0H164v-1004l172-14v100c67-47 201-114 276-114" id="aa"/><path fill="#3d4752" d="M401-244c-4 75 16 109 82 109 41 0 83-14 125-43l66 129C542 31 444 34 324-31c-53-29-80-73-84-125-3-41-5-61-7-61v-666l-192 2v-129l192 2v-245l168-29v274l238-2v129l-238-2v639" id="ab"/><g id="i"><use transform="matrix(0.0087890625,0,0,0.0087890625,0,0)" xlink:href="#Z"/><use transform="matrix(0.0087890625,0,0,0.0087890625,12.2783203125,0)" xlink:href="#K"/><use transform="matrix(0.0087890625,0,0,0.0087890625,22.7373046875,0)" xlink:href="#aa"/><use transform="matrix(0.0087890625,0,0,0.0087890625,38.98828125,0)" xlink:href="#P"/><use transform="matrix(0.0087890625,0,0,0.0087890625,43.7255859375,0)" xlink:href="#N"/><use transform="matrix(0.0087890625,0,0,0.0087890625,53.806640625,0)" xlink:href="#P"/><use transform="matrix(0.0087890625,0,0,0.0087890625,58.5439453125,0)" xlink:href="#S"/><use transform="matrix(0.0087890625,0,0,0.0087890625,67.4560546875,0)" xlink:href="#ab"/><use transform="matrix(0.0087890625,0,0,0.0087890625,74.1357421875,0)" xlink:href="#Q"/><use transform="matrix(0.0087890625,0,0,0.0087890625,81.896484375,0)" xlink:href="#J"/><use transform="matrix(0.0087890625,0,0,0.0087890625,91.1513671875,0)" xlink:href="#ab"/><use transform="matrix(0.0087890625,0,0,0.0087890625,97.8310546875,0)" xlink:href="#P"/><use transform="matrix(0.0087890625,0,0,0.0087890625,102.568359375,0)" xlink:href="#L"/><use transform="matrix(0.0087890625,0,0,0.0087890625,112.7021484375,0)" xlink:href="#N"/></g><path fill="#3d4752" d="M1104-399c-3 276-214 385-590 415-101 8-366-78-412-120l84-140c50 33 312 119 398 113 170-12 356-103 348-281-9-197-183-281-404-264-225 17-403-175-403-405 0-209 274-365 506-365 90 0 335 47 379 82l-74 141c-142-56-239-84-336-80-131 6-309 109-301 252 10 190 168 238 377 232 242-7 431 178 428 420" id="ac"/><path fill="#3d4752" d="M336 0H164v-1473l172-14V0" id="ad"/><path fill="#3d4752" d="M1032-989L569 250c-41 149-81 218-270 219l-74-125c141-3 135-27 187-135 3-7 28-76 75-209L61-989l183-29 321 834 303-834" id="ae"/><g id="j"><use transform="matrix(0.0087890625,0,0,0.0087890625,0,0)" xlink:href="#ac"/><use transform="matrix(0.0087890625,0,0,0.0087890625,10.599609375,0)" xlink:href="#X"/><use transform="matrix(0.0087890625,0,0,0.0087890625,20.6806640625,0)" xlink:href="#U"/><use transform="matrix(0.0087890625,0,0,0.0087890625,31.1396484375,0)" xlink:href="#U"/><use transform="matrix(0.0087890625,0,0,0.0087890625,41.5986328125,0)" xlink:href="#ad"/><use transform="matrix(0.0087890625,0,0,0.0087890625,45.9931640625,0)" xlink:href="#ae"/></g><path fill="#3d4752" d="M336-936c80-40 218-96 303-96 154 0 386 124 401 254 15 132 16 550 11 778H874l3-637c0-162-88-252-263-252-68 0-161 31-278 94V0H164v-1473l172-14v551" id="af"/><g id="k"><use transform="matrix(0.0087890625,0,0,0.0087890625,0,0)" xlink:href="#E"/><use transform="matrix(0.0087890625,0,0,0.0087890625,11.197265625,0)" xlink:href="#af"/><use transform="matrix(0.0087890625,0,0,0.0087890625,21.3486328125,0)" xlink:href="#J"/><use transform="matrix(0.0087890625,0,0,0.0087890625,30.603515625,0)" xlink:href="#P"/><use transform="matrix(0.0087890625,0,0,0.0087890625,35.3408203125,0)" xlink:href="#N"/></g><g id="l"><use transform="matrix(0.0087890625,0,0,0.0087890625,0,0)" xlink:href="#E"/><use transform="matrix(0.0087890625,0,0,0.0087890625,11.197265625,0)" xlink:href="#J"/><use transform="matrix(0.0087890625,0,0,0.0087890625,20.4521484375,0)" xlink:href="#ab"/><use transform="matrix(0.0087890625,0,0,0.0087890625,27.1318359375,0)" xlink:href="#I"/><use transform="matrix(0.0087890625,0,0,0.0087890625,37.125,0)" xlink:href="#O"/><use transform="matrix(0.0087890625,0,0,0.0087890625,47.759765625,0)" xlink:href="#L"/><use transform="matrix(0.0087890625,0,0,0.0087890625,57.8935546875,0)" xlink:href="#Q"/><use transform="matrix(0.0087890625,0,0,0.0087890625,65.654296875,0)" xlink:href="#ae"/></g><path fill="#3d4752" d="M1604-14l-174 28-84-1177L952 0H754L360-1163 276 14 102-14l127-1420 191-14L854-184l432-1264 191 14" id="ag"/><g id="m"><use transform="matrix(0.0087890625,0,0,0.0087890625,0,0)" xlink:href="#ag"/><use transform="matrix(0.0087890625,0,0,0.0087890625,15.029296875,0)" xlink:href="#J"/><use transform="matrix(0.0087890625,0,0,0.0087890625,24.2841796875,0)" xlink:href="#N"/><use transform="matrix(0.0087890625,0,0,0.0087890625,34.365234375,0)" xlink:href="#J"/><use transform="matrix(0.0087890625,0,0,0.0087890625,43.6201171875,0)" xlink:href="#O"/><use transform="matrix(0.0087890625,0,0,0.0087890625,54.2548828125,0)" xlink:href="#I"/><use transform="matrix(0.0087890625,0,0,0.0087890625,64.248046875,0)" xlink:href="#aa"/><use transform="matrix(0.0087890625,0,0,0.0087890625,80.4990234375,0)" xlink:href="#I"/><use transform="matrix(0.0087890625,0,0,0.0087890625,90.4921875,0)" xlink:href="#N"/><use transform="matrix(0.0087890625,0,0,0.0087890625,100.5732421875,0)" xlink:href="#ab"/></g><path fill="#3d4752" d="M1128-1047c0 270-210 420-481 422-77 1-180 4-311 9V0H164v-1434c121-12 233-18 336-18 419 0 628 135 628 405zM551-756c266-2 410-98 410-305 0-165-157-248-472-248-38 0-89 2-153 6v539c37 0 178 8 215 8" id="ah"/><g id="n"><use transform="matrix(0.0087890625,0,0,0.0087890625,0,0)" xlink:href="#ah"/><use transform="matrix(0.0087890625,0,0,0.0087890625,10.8193359375,0)" xlink:href="#Q"/><use transform="matrix(0.0087890625,0,0,0.0087890625,18.580078125,0)" xlink:href="#L"/><use transform="matrix(0.0087890625,0,0,0.0087890625,28.7138671875,0)" xlink:href="#V"/><use transform="matrix(0.0087890625,0,0,0.0087890625,37.8544921875,0)" xlink:href="#X"/><use transform="matrix(0.0087890625,0,0,0.0087890625,47.935546875,0)" xlink:href="#Q"/><use transform="matrix(0.0087890625,0,0,0.0087890625,55.6962890625,0)" xlink:href="#I"/><use transform="matrix(0.0087890625,0,0,0.0087890625,65.689453125,0)" xlink:href="#aa"/><use transform="matrix(0.0087890625,0,0,0.0087890625,81.9404296875,0)" xlink:href="#I"/><use transform="matrix(0.0087890625,0,0,0.0087890625,91.93359375,0)" xlink:href="#N"/><use transform="matrix(0.0087890625,0,0,0.0087890625,102.0146484375,0)" xlink:href="#ab"/></g><g id="o"><use transform="matrix(0.0087890625,0,0,0.0087890625,0,0)" xlink:href="#ac"/><use transform="matrix(0.0087890625,0,0,0.0087890625,10.599609375,0)" xlink:href="#af"/><use transform="matrix(0.0087890625,0,0,0.0087890625,20.7509765625,0)" xlink:href="#P"/><use transform="matrix(0.0087890625,0,0,0.0087890625,25.48828125,0)" xlink:href="#U"/><use transform="matrix(0.0087890625,0,0,0.0087890625,35.947265625,0)" xlink:href="#U"/><use transform="matrix(0.0087890625,0,0,0.0087890625,46.40625,0)" xlink:href="#P"/><use transform="matrix(0.0087890625,0,0,0.0087890625,51.1435546875,0)" xlink:href="#N"/><use transform="matrix(0.0087890625,0,0,0.0087890625,61.224609375,0)" xlink:href="#O"/></g><g id="p"><use transform="matrix(0.0087890625,0,0,0.0087890625,0,0)" xlink:href="#J"/><use transform="matrix(0.0087890625,0,0,0.0087890625,9.2548828125,0)" xlink:href="#N"/><use transform="matrix(0.0087890625,0,0,0.0087890625,19.3359375,0)" xlink:href="#K"/></g><g id="q"><use transform="matrix(0.0087890625,0,0,0.0087890625,0,0)" xlink:href="#Y"/><use transform="matrix(0.0087890625,0,0,0.0087890625,10.2744140625,0)" xlink:href="#L"/><use transform="matrix(0.0087890625,0,0,0.0087890625,20.408203125,0)" xlink:href="#O"/><use transform="matrix(0.0087890625,0,0,0.0087890625,31.04296875,0)" xlink:href="#P"/><use transform="matrix(0.0087890625,0,0,0.0087890625,35.7802734375,0)" xlink:href="#S"/><use transform="matrix(0.0087890625,0,0,0.0087890625,44.6923828125,0)" xlink:href="#ab"/><use transform="matrix(0.0087890625,0,0,0.0087890625,51.3720703125,0)" xlink:href="#P"/><use transform="matrix(0.0087890625,0,0,0.0087890625,56.109375,0)" xlink:href="#V"/><use transform="matrix(0.0087890625,0,0,0.0087890625,65.25,0)" xlink:href="#S"/></g><path fill="#3d4752" d="M1468 0h-182L963-1212 639 0H457L41-1419l178-29L547-201l321-1212h189l321 1212 328-1247 178 29" id="ai"/><g id="r"><use transform="matrix(0.0087890625,0,0,0.0087890625,0,0)" xlink:href="#ai"/><use transform="matrix(0.0087890625,0,0,0.0087890625,16.9189453125,0)" xlink:href="#J"/><use transform="matrix(0.0087890625,0,0,0.0087890625,26.173828125,0)" xlink:href="#Q"/><use transform="matrix(0.0087890625,0,0,0.0087890625,33.9345703125,0)" xlink:href="#I"/><use transform="matrix(0.0087890625,0,0,0.0087890625,43.927734375,0)" xlink:href="#af"/><use transform="matrix(0.0087890625,0,0,0.0087890625,54.0791015625,0)" xlink:href="#L"/><use transform="matrix(0.0087890625,0,0,0.0087890625,64.212890625,0)" xlink:href="#X"/><use transform="matrix(0.0087890625,0,0,0.0087890625,74.2939453125,0)" xlink:href="#S"/><use transform="matrix(0.0087890625,0,0,0.0087890625,83.2060546875,0)" xlink:href="#I"/></g><path fill="#3d4752" d="M1001-12L838 31 336-475V0H164v-1473l172-14v836l428-377 166 47-484 412" id="aj"/><g id="s"><use transform="matrix(0.0087890625,0,0,0.0087890625,0,0)" xlink:href="#ag"/><use transform="matrix(0.0087890625,0,0,0.0087890625,15.029296875,0)" xlink:href="#J"/><use transform="matrix(0.0087890625,0,0,0.0087890625,24.2841796875,0)" xlink:href="#Q"/><use transform="matrix(0.0087890625,0,0,0.0087890625,32.044921875,0)" xlink:href="#aj"/><use transform="matrix(0.0087890625,0,0,0.0087890625,40.8427734375,0)" xlink:href="#I"/><use transform="matrix(0.0087890625,0,0,0.0087890625,50.8359375,0)" xlink:href="#ab"/><use transform="matrix(0.0087890625,0,0,0.0087890625,57.515625,0)" xlink:href="#P"/><use transform="matrix(0.0087890625,0,0,0.0087890625,62.2529296875,0)" xlink:href="#N"/><use transform="matrix(0.0087890625,0,0,0.0087890625,72.333984375,0)" xlink:href="#O"/></g><path fill="#3d4752" d="M1305-768c0 452-279 782-746 782-99 0-231-5-395-14v-1434c164-20 314-29 471-14 371 35 670 290 670 680zm-175 16c0-202-85-354-256-454-149-87-332-128-538-103v1168c218 41 417 13 571-86 149-96 223-271 223-525" id="ak"/><g id="t"><use transform="matrix(0.0087890625,0,0,0.0087890625,0,0)" xlink:href="#ak"/><use transform="matrix(0.0087890625,0,0,0.0087890625,12.3662109375,0)" xlink:href="#P"/><use transform="matrix(0.0087890625,0,0,0.0087890625,17.103515625,0)" xlink:href="#O"/><use transform="matrix(0.0087890625,0,0,0.0087890625,27.73828125,0)" xlink:href="#P"/><use transform="matrix(0.0087890625,0,0,0.0087890625,32.4755859375,0)" xlink:href="#ab"/><use transform="matrix(0.0087890625,0,0,0.0087890625,39.1552734375,0)" xlink:href="#J"/><use transform="matrix(0.0087890625,0,0,0.0087890625,48.41015625,0)" xlink:href="#ad"/></g><g id="u"><use transform="matrix(0.0087890625,0,0,0.0087890625,0,0)" xlink:href="#ag"/><use transform="matrix(0.0087890625,0,0,0.0087890625,15.029296875,0)" xlink:href="#J"/><use transform="matrix(0.0087890625,0,0,0.0087890625,24.2841796875,0)" xlink:href="#Q"/><use transform="matrix(0.0087890625,0,0,0.0087890625,32.044921875,0)" xlink:href="#aj"/><use transform="matrix(0.0087890625,0,0,0.0087890625,40.8427734375,0)" xlink:href="#I"/><use transform="matrix(0.0087890625,0,0,0.0087890625,50.8359375,0)" xlink:href="#ab"/><use transform="matrix(0.0087890625,0,0,0.0087890625,57.515625,0)" xlink:href="#P"/><use transform="matrix(0.0087890625,0,0,0.0087890625,62.2529296875,0)" xlink:href="#N"/><use transform="matrix(0.0087890625,0,0,0.0087890625,72.333984375,0)" xlink:href="#O"/></g><g id="v"><use transform="matrix(0.0087890625,0,0,0.0087890625,0,0)" xlink:href="#W"/><use transform="matrix(0.0087890625,0,0,0.0087890625,11.21484375,0)" xlink:href="#Q"/><use transform="matrix(0.0087890625,0,0,0.0087890625,18.9755859375,0)" xlink:href="#J"/><use transform="matrix(0.0087890625,0,0,0.0087890625,28.23046875,0)" xlink:href="#N"/><use transform="matrix(0.0087890625,0,0,0.0087890625,38.3115234375,0)" xlink:href="#K"/></g><g id="w"><use transform="matrix(0.0087890625,0,0,0.0087890625,0,0)" xlink:href="#Z"/><use transform="matrix(0.0087890625,0,0,0.0087890625,12.2783203125,0)" xlink:href="#M"/><use transform="matrix(0.0087890625,0,0,0.0087890625,19.564453125,0)" xlink:href="#M"/><use transform="matrix(0.0087890625,0,0,0.0087890625,26.8505859375,0)" xlink:href="#P"/><use transform="matrix(0.0087890625,0,0,0.0087890625,31.587890625,0)" xlink:href="#ad"/><use transform="matrix(0.0087890625,0,0,0.0087890625,35.982421875,0)" xlink:href="#P"/><use transform="matrix(0.0087890625,0,0,0.0087890625,40.7197265625,0)" xlink:href="#J"/><use transform="matrix(0.0087890625,0,0,0.0087890625,49.974609375,0)" xlink:href="#ab"/><use transform="matrix(0.0087890625,0,0,0.0087890625,56.654296875,0)" xlink:href="#I"/></g><g id="x"><use transform="matrix(0.0087890625,0,0,0.0087890625,0,0)" xlink:href="#L"/><use transform="matrix(0.0087890625,0,0,0.0087890625,10.1337890625,0)" xlink:href="#M"/></g><path fill="#3d4752" d="M1026-1290H336v471h616v143H336V0H164v-1434h848" id="al"/><g id="y"><use transform="matrix(0.0087890625,0,0,0.0087890625,0,0)" xlink:href="#al"/><use transform="matrix(0.0087890625,0,0,0.0087890625,9.9140625,0)" xlink:href="#P"/><use transform="matrix(0.0087890625,0,0,0.0087890625,14.6513671875,0)" xlink:href="#N"/><use transform="matrix(0.0087890625,0,0,0.0087890625,24.732421875,0)" xlink:href="#J"/><use transform="matrix(0.0087890625,0,0,0.0087890625,33.9873046875,0)" xlink:href="#N"/><use transform="matrix(0.0087890625,0,0,0.0087890625,44.068359375,0)" xlink:href="#V"/><use transform="matrix(0.0087890625,0,0,0.0087890625,53.208984375,0)" xlink:href="#I"/></g><g id="z"><use transform="matrix(0.0087890625,0,0,0.0087890625,0,0)" xlink:href="#J"/><use transform="matrix(0.0087890625,0,0,0.0087890625,9.2548828125,0)" xlink:href="#N"/><use transform="matrix(0.0087890625,0,0,0.0087890625,19.3359375,0)" xlink:href="#K"/></g><g id="A"><use transform="matrix(0.0087890625,0,0,0.0087890625,0,0)" xlink:href="#Z"/><use transform="matrix(0.0087890625,0,0,0.0087890625,12.2783203125,0)" xlink:href="#K"/><use transform="matrix(0.0087890625,0,0,0.0087890625,22.7373046875,0)" xlink:href="#aa"/><use transform="matrix(0.0087890625,0,0,0.0087890625,38.98828125,0)" xlink:href="#P"/><use transform="matrix(0.0087890625,0,0,0.0087890625,43.7255859375,0)" xlink:href="#N"/><use transform="matrix(0.0087890625,0,0,0.0087890625,53.806640625,0)" xlink:href="#P"/><use transform="matrix(0.0087890625,0,0,0.0087890625,58.5439453125,0)" xlink:href="#S"/><use transform="matrix(0.0087890625,0,0,0.0087890625,67.4560546875,0)" xlink:href="#ab"/><use transform="matrix(0.0087890625,0,0,0.0087890625,74.1357421875,0)" xlink:href="#Q"/><use transform="matrix(0.0087890625,0,0,0.0087890625,81.896484375,0)" xlink:href="#J"/><use transform="matrix(0.0087890625,0,0,0.0087890625,91.1513671875,0)" xlink:href="#ab"/><use transform="matrix(0.0087890625,0,0,0.0087890625,97.8310546875,0)" xlink:href="#P"/><use transform="matrix(0.0087890625,0,0,0.0087890625,102.568359375,0)" xlink:href="#L"/><use transform="matrix(0.0087890625,0,0,0.0087890625,112.7021484375,0)" xlink:href="#N"/></g><path fill="#3d4752" d="M1198-14l-188 28-346-641c-82 4-191 8-328 11V0H164v-1434c121-12 233-18 336-18 424 2 633 135 628 418-4 189-101 315-292 377zM551-756c266-2 410-98 410-305 0-165-157-248-472-248-38 0-89 2-153 6v539c37 0 178 8 215 8" id="am"/><g id="B"><use transform="matrix(0.0087890625,0,0,0.0087890625,0,0)" xlink:href="#H"/><use transform="matrix(0.0087890625,0,0,0.0087890625,12.3310546875,0)" xlink:href="#am"/></g><g id="C"><use transform="matrix(0.0087890625,0,0,0.0087890625,0,0)" xlink:href="#al"/><use transform="matrix(0.0087890625,0,0,0.0087890625,9.9140625,0)" xlink:href="#P"/><use transform="matrix(0.0087890625,0,0,0.0087890625,14.6513671875,0)" xlink:href="#N"/><use transform="matrix(0.0087890625,0,0,0.0087890625,24.732421875,0)" xlink:href="#J"/><use transform="matrix(0.0087890625,0,0,0.0087890625,33.9873046875,0)" xlink:href="#N"/><use transform="matrix(0.0087890625,0,0,0.0087890625,44.068359375,0)" xlink:href="#V"/><use transform="matrix(0.0087890625,0,0,0.0087890625,53.208984375,0)" xlink:href="#I"/></g><g id="D"><use transform="matrix(0.0087890625,0,0,0.0087890625,0,0)" xlink:href="#al"/><use transform="matrix(0.0087890625,0,0,0.0087890625,9.9140625,0)" xlink:href="#J"/><use transform="matrix(0.0087890625,0,0,0.0087890625,19.1689453125,0)" xlink:href="#V"/><use transform="matrix(0.0087890625,0,0,0.0087890625,28.3095703125,0)" xlink:href="#P"/><use transform="matrix(0.0087890625,0,0,0.0087890625,33.046875,0)" xlink:href="#ad"/><use transform="matrix(0.0087890625,0,0,0.0087890625,37.44140625,0)" xlink:href="#P"/><use transform="matrix(0.0087890625,0,0,0.0087890625,42.1787109375,0)" xlink:href="#ab"/><use transform="matrix(0.0087890625,0,0,0.0087890625,48.8583984375,0)" xlink:href="#P"/><use transform="matrix(0.0087890625,0,0,0.0087890625,53.595703125,0)" xlink:href="#I"/><use transform="matrix(0.0087890625,0,0,0.0087890625,63.5888671875,0)" xlink:href="#S"/></g></defs></g></svg>